<?xml version="1.0" encoding="UTF-8"?>
<svg width="1350" height="900" viewBox="0 0 225 150" xmlns="http://www.w3.org/2000/svg" xmlns:xlink="http://www.w3.org/1999/xlink">
 <path d="m0 0h225v150h-225z" fill="#f93"/>
 <path d="m0 50h225v50h-225z" fill="#fff"/>
 <path d="m0 100h225v50h-225z" fill="#128807"/>
 <g transform="translate(112.5,75)">
  <path d="m20 0a20 20 0 1 0 -40 0 20 20 0 1 0 40 0" fill="#008"/>
  <path d="m17.5 0a17.5 17.5 0 1 0 -35 0 17.5 17.5 0 1 0 35 0" fill="#fff"/>
  <path d="m3.5 0a3.5 3.5 0 1 0 -7 0 3.5 3.5 0 1 0 7 0" fill="#008"/>
  <g id="e">
   <g id="f">
    <g id="g">
     <g id="h">
      <path transform="matrix(.99144 .13053 -.13053 .99144 17.35 2.2842)" d="m.875,0a.875,.875 0 1,0 -1.75,0 .875,.875 0 1,0 1.75,0" fill="#008"/>
      <path d="m0,17.5 .6-10.5-.6-5-.6,5 .6,10.5z" fill="#008"/>
     </g>
     <use transform="rotate(15)" xlink:href="#h"/>
    </g>
    <use transform="rotate(30)" xlink:href="#g"/>
   </g>
   <use transform="rotate(60)" xlink:href="#f"/>
  </g>
  <use transform="rotate(120)" xlink:href="#e"/>
  <use transform="rotate(240)" xlink:href="#e"/>
 </g>
</svg>
