<?xml version="1.0" encoding="UTF-8" standalone="no"?>
<svg
   xmlns:dc="http://purl.org/dc/elements/1.1/"
   xmlns:cc="http://creativecommons.org/ns#"
   xmlns:rdf="http://www.w3.org/1999/02/22-rdf-syntax-ns#"
   xmlns:svg="http://www.w3.org/2000/svg"
   xmlns="http://www.w3.org/2000/svg"
   xmlns:sodipodi="http://sodipodi.sourceforge.net/DTD/sodipodi-0.dtd"
   xmlns:inkscape="http://www.inkscape.org/namespaces/inkscape"
   viewBox="0 0 601 402"
   version="1.1"
   id="svg10"
   sodipodi:docname="taipei.svg"
   width="601"
   height="402"
   inkscape:version="0.92.5 (2060ec1f9f, 2020-04-08)">
  <metadata
     id="metadata16">
    <rdf:RDF>
      <cc:Work
         rdf:about="">
        <dc:format>image/svg+xml</dc:format>
        <dc:type
           rdf:resource="http://purl.org/dc/dcmitype/StillImage" />
        <dc:title></dc:title>
      </cc:Work>
    </rdf:RDF>
  </metadata>
  <defs
     id="defs14" />
  <sodipodi:namedview
     pagecolor="#ffffff"
     bordercolor="#666666"
     borderopacity="1"
     objecttolerance="10"
     gridtolerance="10"
     guidetolerance="10"
     inkscape:pageopacity="0"
     inkscape:pageshadow="2"
     inkscape:window-width="1280"
     inkscape:window-height="959"
     id="namedview12"
     showgrid="false"
     inkscape:zoom="1.1125147"
     inkscape:cx="439.25727"
     inkscape:cy="276.88825"
     inkscape:window-x="0"
     inkscape:window-y="40"
     inkscape:window-maximized="1"
     inkscape:current-layer="svg10" />
  <path
     d="m 1.6667,2.18464 h 600 v 400 h -600 z"
     id="path2"
     inkscape:connector-curvature="0"
     style="fill:#ff0000;fill-opacity:0.98246005;fill-rule:evenodd;stroke:#000000" />
  <path
     d="m 2.1501,2.72264 h 300 v 200 h -300 z"
     id="path4"
     inkscape:connector-curvature="0"
     style="fill:#0007a0" />
  <path
     d="m 188.41703,155.70502 -30.80725,-23.28188 -4.55904,37.11469 -14.40841,-34.77553 -23.51043,29.9794 5.85105,-36.95117 L 84.821132,142.60249 109.36372,113.37775 70.239269,109.0529 106.8979,95.38462 75.295114,73.08188 114.24718,78.63238 98.633162,44.32813 129.44041,67.61 l 4.55904,-37.11469 14.40841,34.77554 23.51043,-29.97941 -5.85105,36.95117 36.16182,-14.81195 -24.54258,29.22473 39.12445,4.32485 -36.65863,13.66828 31.60278,22.30274 -38.95207,-5.5505 z"
     id="path6"
     inkscape:connector-curvature="0"
     style="fill:#ffffff;stroke-width:1.0428375" />
  <path
     d="m 178.74777,100.83379 a 34.69275,32.763721 0 1 1 -69.3855,0 34.69275,32.763721 0 1 1 69.3855,0 z"
     id="path8"
     inkscape:connector-curvature="0"
     style="fill:#f7f7ff;fill-opacity:0.99414996;stroke:#0000ac;stroke-width:5.72650814;stroke-opacity:0.89473997" />
</svg>
